<svg xmlns="http://www.w3.org/2000/svg" viewBox="0 0 800 500">
<defs>
 <linearGradient id="bg" x1="0" y1="0" x2="1" y2="1"><stop stop-color="#071a33"/><stop offset="1" stop-color="#123b63"/></linearGradient>
 <pattern id="grid" width="36" height="36" patternUnits="userSpaceOnUse"><path d="M36 0H0V36" fill="none" stroke="#fff" stroke-opacity=".075"/></pattern>
 <radialGradient id="glow"><stop stop-color="#b5122b" stop-opacity=".30"/><stop offset="1" stop-color="#b5122b" stop-opacity="0"/></radialGradient>
</defs>
<rect width="800" height="500" rx="34" fill="url(#bg)"/>
<rect width="800" height="500" rx="34" fill="url(#grid)"/>
<circle cx="400" cy="250" r="240" fill="url(#glow)"/>
<path d="M120 330 C220 210 300 350 390 230 S560 140 690 240" fill="none" stroke="#b5122b" stroke-width="7"/><circle cx="120" cy="330" r="12" fill="#b5122b"/><circle cx="390" cy="230" r="12" fill="#b5122b"/><circle cx="690" cy="240" r="12" fill="#b5122b"/><g fill="#fff"><rect x="270" y="105" width="110" height="62" rx="16"/><rect x="500" y="310" width="125" height="62" rx="16"/></g><text x="325" y="143" text-anchor="middle" font-size="14" fill="#071a33">LEARN</text><text x="562" y="348" text-anchor="middle" font-size="14" fill="#071a33">PRACTISE</text>
<text x="42" y="52" font-family="Arial, sans-serif" font-size="13" font-weight="700" letter-spacing="4" fill="#b5122b">CARAWIN ADAPT</text>
<text x="42" y="78" font-family="Arial, sans-serif" font-size="11" letter-spacing="2.5" fill="#fff" opacity=".72">PERSONALISED LEARNING</text>
<text x="758" y="452" text-anchor="end" font-family="monospace" font-size="9" letter-spacing="2" fill="#fff" opacity=".45">CARAWIN / EDUCATION TECHNOLOGY</text>
</svg>